# xmcd CD database file
#
# Track frame offsets:
#	150
#	14348
#	25877
#	36993
#	48357
#	61476
#	74912
#	89046
#	103295
#	114654
#	127001
#	141482
#	155709
#	168580
#	182562
#	195243
#	208384
#	226081
#	244442
#	262026
#	280445
#	302284
#	320716
#	338575
#
# Disc length: 4763 seconds
#
# Revision: 1
# Processed by: cddbd v1.5.2PL0 Copyright (c) Steve Scherf et al.
# Submitted via: CDex 1.51
#
DISCID=7b129918
DTITLE=Lester Young - The Complete Aladdin Recordings
DYEAR=1900
DGENRE=Jazz
TTITLE0=Movin' with Lester
TTITLE1=Easy does it
TTITLE2=Easy does it (alternate)
TTITLE3=I'm confessin'
TTITLE4=Lester smooths it out
TTITLE5=Just cooling
TTITLE6=Tea for two
TTITLE7=East of the sun
TTITLE8=The sheik of Araby
TTITLE9=Something to remember you by
TTITLE10=Untitled instrumental
TTITLE11=Please let me forget
TTITLE12=He don't love me anymore
TTITLE13=Pleasing man blues
TTITLE14=See see rider
TTITLE15=It's better to give than receive
TTITLE16=Back to the land
TTITLE17=I cover the waterfront
TTITLE18=Somebody loves me
TTITLE19=I've found my baby
TTITLE20=The man I love
TTITLE21=Peg o'my heart
TTITLE22=I want to be happy
TTITLE23=Mean to me
EXTD=
EXTT0=
EXTT1=
EXTT2=
EXTT3=
EXTT4=
EXTT5=
EXTT6=
EXTT7=
EXTT8=
EXTT9=
EXTT10=
EXTT11=
EXTT12=
EXTT13=
EXTT14=
EXTT15=
EXTT16=
EXTT17=
EXTT18=
EXTT19=
EXTT20=
EXTT21=
EXTT22=
EXTT23=
PLAYORDER=
